<?xml version="1.0" encoding="UTF-8"?><svg id="_圖層_1" xmlns="http://www.w3.org/2000/svg" viewBox="0 0 1200 800"><defs><style>.cls-1{stroke-width:3px;}.cls-1,.cls-2{fill:none;stroke:#000;stroke-miterlimit:10;}.cls-3{fill:#f2e955;}.cls-4{fill:#040000;}.cls-5{fill:#fff;}.cls-6{fill:#fff9ed;}.cls-7{fill:#848587;}.cls-8{fill:#0da599;}.cls-9{fill:#8dc21f;}.cls-9,.cls-10{opacity:.2;}.cls-2{stroke-width:.5px;}</style></defs><rect class="cls-6" width="1200" height="800"/><g class="cls-10"><g><line class="cls-2" x1="163.64" y1="733.33" x2="163.64" y2="66.67"/><line class="cls-2" x1="66.67" y1="733.33" x2="66.67" y2="66.67"/><line class="cls-2" x1="98.99" y1="733.33" x2="98.99" y2="66.67"/><line class="cls-2" x1="131.31" y1="733.33" x2="131.31" y2="66.67"/><line class="cls-2" x1="292.93" y1="733.33" x2="292.93" y2="66.67"/><line class="cls-2" x1="195.96" y1="733.33" x2="195.96" y2="66.67"/><line class="cls-2" x1="228.28" y1="733.33" x2="228.28" y2="66.67"/><line class="cls-2" x1="260.61" y1="733.33" x2="260.61" y2="66.67"/><line class="cls-2" x1="422.22" y1="733.33" x2="422.22" y2="66.67"/><line class="cls-2" x1="325.25" y1="733.33" x2="325.25" y2="66.67"/><line class="cls-2" x1="357.58" y1="733.33" x2="357.58" y2="66.67"/><line class="cls-2" x1="389.9" y1="733.33" x2="389.9" y2="66.67"/><line class="cls-2" x1="551.51" y1="733.33" x2="551.51" y2="66.67"/><line class="cls-2" x1="454.55" y1="733.33" x2="454.55" y2="66.67"/><line class="cls-2" x1="486.87" y1="733.33" x2="486.87" y2="66.67"/><line class="cls-2" x1="519.19" y1="733.33" x2="519.19" y2="66.67"/><line class="cls-2" x1="680.81" y1="733.33" x2="680.81" y2="66.67"/><line class="cls-2" x1="583.84" y1="733.33" x2="583.84" y2="66.67"/><line class="cls-2" x1="616.16" y1="733.33" x2="616.16" y2="66.67"/><line class="cls-2" x1="648.48" y1="733.33" x2="648.48" y2="66.67"/><line class="cls-2" x1="810.1" y1="733.33" x2="810.1" y2="66.67"/><line class="cls-2" x1="713.13" y1="733.33" x2="713.13" y2="66.67"/><line class="cls-2" x1="745.45" y1="733.33" x2="745.45" y2="66.67"/><line class="cls-2" x1="777.78" y1="733.33" x2="777.78" y2="66.67"/><line class="cls-2" x1="939.39" y1="733.33" x2="939.39" y2="66.67"/><line class="cls-2" x1="842.42" y1="733.33" x2="842.42" y2="66.67"/><line class="cls-2" x1="874.75" y1="733.33" x2="874.75" y2="66.67"/><line class="cls-2" x1="907.07" y1="733.33" x2="907.07" y2="66.67"/><line class="cls-2" x1="1068.69" y1="733.33" x2="1068.69" y2="66.67"/><line class="cls-2" x1="971.72" y1="733.33" x2="971.72" y2="66.67"/><line class="cls-2" x1="1004.04" y1="733.33" x2="1004.04" y2="66.67"/><line class="cls-2" x1="1036.36" y1="733.33" x2="1036.36" y2="66.67"/><line class="cls-2" x1="1101.01" y1="733.33" x2="1101.01" y2="66.67"/><line class="cls-2" x1="1133.33" y1="733.33" x2="1133.33" y2="66.67"/></g><g><line class="cls-2" x1="66.67" y1="66.67" x2="1133.33" y2="66.67"/><line class="cls-2" x1="66.67" y1="96.97" x2="1133.33" y2="96.97"/><line class="cls-2" x1="66.67" y1="157.58" x2="1133.33" y2="157.58"/><line class="cls-2" x1="66.67" y1="127.27" x2="1133.33" y2="127.27"/><line class="cls-2" x1="66.67" y1="189.9" x2="1133.33" y2="189.9"/><line class="cls-2" x1="66.67" y1="222.22" x2="1133.33" y2="222.22"/><line class="cls-2" x1="66.67" y1="286.87" x2="1133.33" y2="286.87"/><line class="cls-2" x1="66.67" y1="254.55" x2="1133.33" y2="254.55"/><line class="cls-2" x1="66.67" y1="319.19" x2="1133.33" y2="319.19"/><line class="cls-2" x1="66.67" y1="351.52" x2="1133.33" y2="351.52"/><line class="cls-2" x1="66.67" y1="416.16" x2="1133.33" y2="416.16"/><line class="cls-2" x1="66.67" y1="383.84" x2="1133.33" y2="383.84"/><line class="cls-2" x1="66.67" y1="448.48" x2="1133.33" y2="448.48"/><line class="cls-2" x1="66.67" y1="480.81" x2="1133.33" y2="480.81"/><line class="cls-2" x1="66.67" y1="545.45" x2="1133.33" y2="545.45"/><line class="cls-2" x1="66.67" y1="513.13" x2="1133.33" y2="513.13"/><line class="cls-2" x1="66.67" y1="577.78" x2="1133.33" y2="577.78"/><line class="cls-2" x1="66.67" y1="642.42" x2="1133.33" y2="642.42"/><line class="cls-2" x1="66.67" y1="610.1" x2="1133.33" y2="610.1"/><line class="cls-2" x1="66.67" y1="672.73" x2="1133.33" y2="672.73"/><line class="cls-2" x1="66.67" y1="703.03" x2="1133.33" y2="703.03"/><line class="cls-2" x1="66.67" y1="733.33" x2="1133.33" y2="733.33"/></g></g><path class="cls-9" d="M1133.33,0H0V800H1200V0h-66.67Zm0,733.33H66.67V66.67H1133.33V733.33Z"/><g class="cls-10"><g><path class="cls-7" d="M704.53,206.77c-.51-10.85,1-12.1,11.66-10.65,8.51,1.16,14.75-1.3,17.99-10.35,2.4-6.71,6.4-12.85,9.69-19.24,.76-4.4,3.25-7.97,5.59-11.61,3.69-6.8,4.99-16.46,16.56-13.79,1.79,.25,3.23-.34,4.28-1.82,5.55-1.17,11.16-2.81,16.11,1.69,1.26,.19,2.52,.37,3.78,.56,6.97,.23,10.29,4.71,12.38,10.62q6.12,14.3,22.97,5.86c5.21-2.43,10.52-1.61,15.85-.52,.34,.5,.81,.68,1.4,.53,6.49,.01,9.77,4.59,13.05,9.17,4.98,1.73,7.17-1.2,8.69-5.22,.36-3.61,3.28-4.79,5.93-6.22,4.06-2.05,8.13-4.1,12.19-6.15,2.5-1.84,5.16-1.2,7.82-.48,13.43-.65,26.09,3.42,38.96,6.25,5.36-1.26,10.73-.99,16.11-.19,5.53-3.28,11.06-6.55,16.59-9.83,5.33-1.59,10.68-1.29,16.05-.21,7.26,2.06,14.5,3.24,22.08,1.34,5.6-1.4,10.96-.19,14.74,4.41,4.34,5.26,.16,9.73-2.46,13.78-3.88,5.97-8,11.49-.59,17.65,5.94,5.63,5.13,11.77,1.37,18.13-1.65,2.42-2.48,5.07-2.38,8.01-1.58,2.04-2.26,5.29-5.97,4.53-17.54,7.49-19.45,11.2-13.85,29.1,3.01,9.63,7.23,18.96,5.64,29.42-.36,2.36,1.12,5.79-3.09,6.34-3.49,.46-6.88,.75-7.81-3.9-3.62-2.37-5.61-5.7-5.91-10.02-4.28-7.09-4.94-14.55-2.32-22.37,1.39-4.15,.98-7.41-2.86-10.59-4.29-3.55-7.21-.27-9.94,1.35-6.71,4-11.47,9.8-21.52,8.53-6.63-.84-12.81,7.19-15.46,14.94,1.48,4.36-.79,9.11,1.41,13.39,5.37,5.73,10.75,11.47,16.12,17.2,4.74,2.17,6.25,6.44,7.22,11.07-.33,5.18-1.72,10.16-2.95,15.16-4.06,10.33-9.08,20.07-18.4,26.69-4.44,3.16-1.84,5.53,.17,8.22,1.96,3.67,4.93,7.2,1.71,11.64-1.94,1.72-2.25,5.34-5.9,5.07-7.58-.81-5.47-10.93-12.13-12.62-3.49,1.07-7.48-3.61-10.74,1.12-3.33,4.83-.78,8.95,1.46,12.9,3.43,6.03,7.5,11.71,8.89,18.7-.46,6.07,.94,12.14,.04,18.21-2.05,10.98-9.96,14.66-19.82,16.45-10.34,1.88-13.53,7.37-10.13,16.26,3.47,1.91,3.81,4.7,2.25,8.02,1.56,5-.72,9.2-2.79,13.44-2.4,4.04-5.84,4.62-9.96,3.01-3.07-.95-3.38-4.02-4.8-6.23-3.3-2.21-5.57-.47-7.67,1.97-3.64,4.77,2.64,6.74,2.94,10.4,1.79,1.44,3.48,2.97,5.04,4.69,2.6,2.86,2.62,5.86,1.11,9.11-1.93,4.16-5.46,4.07-9.19,3.39-2.6-1.83-2.02-4.46-1.78-7.01-6.85-7.37-8.51-17.18-12.21-26.03-3.56-8.51-6.39-17.48-14.61-23.03-2.55-1.37-5.46-1.97-7.81-3.75-14.28,5.67-19.7,17.76-22.85,31.5-.71,2.56,.48,6.21-3.87,6.66-3.46,1.39-4.49,8.07-10.16,4.67-4.06-.56-4.51-4.11-5.77-6.99-2.02-5.65-4.62-11-8.15-15.88-2.92-3.11-4.52-6.97-6.13-10.82-4.52-8.62-6.3-19.65-18.74-21.31-3.38,1.31-6.9,.39-10.33,.67-5.99-1.39-7.45,2.02-7.41,7.02,.13,7.86-6.17,11.58-10.61,16.51-1.25,2.61-2.84,4.74-6.2,4.37-15.77,10.27-27.57,3.37-38.14-8.82-4.61-1.76-3.78,2.04-4.43,4.33,2.23,5.44,4.1,11.11,9.46,14.52,4.48,2.86,9.75,2.47,14.65,3.61,1.44-.56,2.88-1.12,4.32-1.68,3.27-1.7,6.59-1.78,9.95-.27,4.71,9.3-3.92,15.12-5.9,22.68,.42,3.89-2.15,5.93-4.86,7.89-11.06,13.87-20.03,28.61-19.47,47.27,.77,4.04,1.83,8.09-.72,11.93-5.16,20.9-19.73,35.29-34.34,49.65-1.88,2.17-3.32,4.86-6.52,5.45-5.59-.21-8.17,6.19-15.14,5.19-12.21-1.74-17.54-9.42-21.95-19.03-3.18-6.94-6.18-13.97-9.25-20.96-2.57-2.41-1.2-5.1-.56-7.74,.02-7.55,.04-15.09,.06-22.64-1.23-9.41-.84-18.83-.24-28.26-3.24-12.2-7.99-23.11-22.08-26.14-10.04,.23-20.12,1.6-30.1-.75-1.56-.59-3.07-1.43-4.69-1.74-16.84-3.31-22.28-9.37-23.83-26.74,1.05-4.73,1.04-9.45,0-14.18,.98-23.01,13.39-39.56,30.33-53.53,3.03-5.09-2.24-3.98-4.06-5.44-2.78-3.52-5.57-7.03-8.35-10.55-.93-3.38-2.42-6.8,.71-9.89,3.16-4.79,7.79-7.22,13.32-7.98,6.33-.88,8.97-4.28,7.09-10.45-1.46-4.79,.7-7.62,4.33-10.11,10.62-7.3,22.78-13.35,23.99-28.56,4.46-2.45,7.64,.24,10.86,2.72,2.09,1.52,4.32,2.64,7.03,2.13,2.41,0,4.82-.04,6.99-1.32,.62-.5,1.2-1.04,1.75-1.63,1.12-1.18,2.3-2.3,3.39-3.51,2.63-3.41,4.45-7.22,5.78-11.26,.06-1.21-.07-2.41-.31-3.61-1.17-1.72-.11-5.54-4.19-4.28-2.06,2.27-2.34,4.94-2.1,7.77-.04,2.55,.13,5.09-.19,7.63-1.6,3.97-4.56,6.42-8.58,7.68-2.77,.53-5.55,.53-8.32,.05-6.19-.98-3.32-8.95-8.36-10.83-.64-1.34-1.38-1.49-2.24-.18-5.52,1.91-7.99-.34-8.01-5.9-1.14-24.18,16.8-53.66,38.86-63.87,4.27-3.97,8.98-2.99,13.76-1.22,5.23,2.05,10.45,4.1,15.68,6.15,3.01,1.11,6.22,1.54,9.17,2.84,5.47,2.62,9.17,6.14,6.52,12.85-.49,1.77-.9,3.61-2.49,4.6,.17-.09,.26,.13,.39,.03,1.66-1.35,1.63-3.27,2.23-4.93,3.38-11.31,6.03-13.09,18.68-12.58,3.78,.31,7.65-.7,11.37,.71,6.45-1.35,12.6-3.26,16.67-9.01,1.64-3.51-.1-7.49,1.5-11Z"/><path class="cls-7" d="M322.52,404.35c-3.56,6.22-7.08,3.4-10.66,0-4.66-4.44-8.16-10.47-15.44-11.36-5.35,.53-10.69,1-16.01-.29-6.02,.62-9.33,3.97-10.06,9.94,.49,1.63,.76,3.3,.85,5.01,.71,12.95,1.42,13.59,14.32,13.16,1.01-.03,2.02,.26,3.02,.41,7.37-.36,15.46-1.85,10.7,10.56-1.65,4.31,2.9,4.23,5.62,5.02,3.6-.3,4.53,2.57,5.87,4.94,.64,7.17-2.3,15.56,8.66,18.53,4.58,1.24,8.04,1.74,12.14-.69,3.07-1.82,6.21-3.99,10.15-3.61,7.4-3.24,14.78,.06,22.17,.03,16.02,3.03,28.64,12.77,40.84,22.38,13.26,10.44,26.11,21.02,42.33,26.6,4.45,1.53,8.71,3.72,11.45,7.91,1.5,1.65,3.8,3.13,1.22,5.66-5.69,13.14-8.4,27.74-18.58,38.67-5.16,5.54-10.33,11.18-16.18,15.94-8.01,6.53-12.18,14.9-14.31,24.64-1.52,6.97-5.13,12.23-12.03,14.82-8.72,8.68-18.3,16.77-20.57,29.89-1.88,3.4,.61,7.59-1.96,10.87-1.7,6.52-.87,12.76,2.11,18.76,1.79,.93,1.2,2.73,1.53,4.2h.06c3.69,1.75,3.21,5.6,4.34,8.63-.05,4.2,1.93,9.53-4.02,11.11-4.54,1.21-8.41,.19-12.04-4.29-4.06-4.99-6.53-10.87-10.6-15.72-4.91-1.92-5.93-5.45-4.2-10.12-3.23-11.41-7.8-22.68-3.9-34.89-.65-3.34-1.91-6.73,.73-9.83,1.41-1.18,1.68-2.71,1.37-4.42-1.27-13.56-1.16-27.12-.05-40.68-1.71-14.98-6.73-28.43-18-39-4.76-2.64-8.24-6.76-12.11-10.44-1.99-6.18-3.98-12.36-5.96-18.54-2.57-7.35-1.69-14.05,3.68-19.93,9.76-11.59,9.8-12.98-5.55-22.47-14.07-8.7-27.82-18.26-43.71-23.54-12.28-4.08-20.22-12.3-25.94-23.52-3.21-6.28-7.3-12.12-10.99-18.16-3.54-3.17-4.92,1.24-7.31,2.08-8.25-2.81-9.53-11.46-14.03-17.33-1.66-2.17-3.49-4.66-4.81-7.28-1.18-2.54-4.07-4.62-2.17-8-.13-2.84-2.6-5.28-1.42-8.34-.37-5.39-.25-10.78-.02-16.17,2.13-11.5,4.32-22.99,6.36-34.51,.52-2.93,1.55-5.97-.31-8.86-2.36-3.7-1.1-7.67-.83-11.56-1.63-4.94-1.81-10.39-5.18-14.72-2.83-1.94-2.73-4.93-2.84-7.85-2.13-4.37-3.08-9.46-7.52-12.43-3.19-4.5-6.22-9.1-8.34-14.23-3.42-2.62-6.83-5.24-10.25-7.86-1.79,1.66-3.91,1.93-6.21,1.49-9.7,2.72-14.93,12.47-24.44,15.52-1.57,.51-2.9,1.82-4.49,2.24-3.58,.94-8.14,2.44-10.56-.5-3.09-3.75,2.37-5.36,3.87-8.04,.49-.87,.8-1.85,1.19-2.77,1.42-8.68-3.98-16.12-4.44-24.46,.02-2.09,.04-4.18,.07-6.27,1.07-6.88,2.24-13.7,8.4-18.24,1.64-.66,1.97-2.09,2.12-3.62,2.16-5.71,7.95-8.41,11.04-13.34,2.48-3.22,5.81-5.43,9.13-7.63,16.39-19.99,23.35-21.78,46.71-12.02,4.23,2.7,8.64,5.25,10,10.65l-.22,.04c5.01,3.62,8.9,8.35,12.89,12.98,3.64,2.96,8.1,2.62,12.36,3.05,5.41,.22,10.8-1.83,16.22-.08,5.54,.62,9.44,4.83,14.49,6.58,5.04,1.75,9.97,3.24,12.75-3.13,2.93-6.7-2.87-7.65-6.85-9.69-7.85-5.5-3.74-10.85,.19-16.21,2.81-.14,4.82-1.59,6.33-3.86,3.52-2.97,6.69-1.87,9.71,.85,.6,.29,1.21,.58,1.81,.87,4.38,2.15,8.72,4.35,10.59,9.36,2.03,.93,4.07,1.85,6.1,2.78,5.64-.32,11.57-1.49,14.83,5.09,.69,3.1,.45,6.3,.93,9.43-.36,4.57-5.88,9.52,1.05,13.55,4.55,4.48,9.77,6.94,16.33,5.52,3.96-.23,7.41,1.58,11.04,2.69,5,2.86,9.52,5.92,5.32,12.63-2.64,7.53-8.91,11.6-15.02,15.83-3.32,4.92-8.6,5.77-13.87,6.66-2.72,.23-4.93,1.37-6.5,3.66-3.89,3.17-7.11,7.05-10.89,10.34-1.85,3.29-4.07,6.48-2.69,10.59,1.68,3.53,3.6,6.94,5.47,10.37,5.98,5.33,11.8,10.85,17.97,15.95,9.44,7.81,9.54,7.68,14.49-4.09-2.11-5.14,.63-9.54,2.18-14.11,.4-.47,.54-1,.43-1.61,1.29-2.17-.02-5.91,3.92-6.47,10.96-7.73,16.98-6.05,28.62,7.99,4.27,2.3,6.2,6.33,7.84,10.57,2.91,5.3,5.78,10.62,8.74,15.89,6.27,11.18,5.16,18.59-4.87,26.51-4.99,3.94-10.47,7.53-16.23,10.18-15.24,7.01-27.62,16.77-34.49,32.51-.94,3.99-3.93,5.37-7.42,7.06-6.01,2.91-13.48,4.4-15.84,12.2-1.1,5.07,1.77,10.59-1.76,15.38Z"/><path class="cls-7" d="M431.88,223.32c1.74-5.04,3.31-10.15,5.25-15.1,9.84-25.04,2.8-25.82-13.8-40.75-2.39,.03-3.43-1.59-4.24-3.49-3.08-3.71-1.72-8.23-2.25-12.41-.62-5.39,4.46-4.08,6.91-5.87,3.76-.72,6.68-3.02,9.68-5.16,2.31-3.71,5.88-5.17,10.01-5.64,12-8.23,24.68-14.99,39.09-17.97,8.07-1.77,16.15-1.67,24.23-.05,1.51,1.92,3.66,2.14,5.86,2.22,1.96,.76,4.2,1.19,4.37,3.93,1.53,3.31,4.63,6.04,3.71,10.24-.91,3.38-1.02,6.76,.07,10.13-.11,10.58-7.83,18.62-9.56,28.67-2.35,14.51,0,29.45-4.02,43.8-4.86,9.12-7.52,20.43-20.91,21.13-10.26,7.78-20.25,15.95-30.83,23.26-13.77,9.49-16.16,8.55-23.15-6.8-3.86-2.83-1.52-6.53-1.39-9.91,.02-2.79,.03-5.59,.05-8.38-.62-4.01-2.03-8.09,.9-11.83Z"/><path class="cls-7" d="M929.42,604.87c-10.23,5.36-21.35,7.71-32.6,9.62-3.1-1.69-5.6-3.77-5.2-7.8-.02-6.96,0-13.91,0-20.86,.93-4.49-2.03-9.46,1.68-13.61,2.25-8.47,7.41-14.14,16.01-16.34,11.29-2.88,20.72-8.94,29.41-16.49,3.03-2.64,6.43-5.01,10.01-6.84,10.61-5.44,14.6-3.84,17.11,7.85,1.45,6.74,4.41,8.61,10.58,6.55,5.29-4.71,3.65-12.1,6.82-17.63,8.72,4.77,10.59,14.28,14.86,22.01,4.81,8.68,8.59,17.93,12.82,26.94,1.7,6.67,2.15,13.32-.23,19.94-4.74,11.2-7.13,23.56-16.15,32.64-4.69,3.9-9.36,7.93-15.87,3.41-6.56-1.67-10.22-6.98-14.47-11.55-6.24-.81-5.22-8.5-10.08-10.62,.23-.5,.17-.96-.18-1.38-2.87-1.91-5.58-4.02-8.05-6.43-.78-.45-1.55-.9-2.33-1.34-2.34,.91-4.77,1.2-7.26,.92-2.23,.73-4.25,2.88-6.86,1Z"/><path class="cls-7" d="M422.99,104.39c3.47,.64,6.95,1.28,10.42,1.91,2.75-.88,5.51-1.85,7.89,.83,3.69,4.6,1.14,7.33-2.72,10.04-4.02,2.82-7.75,6.03-11.61,9.07-3.38,6.06-8.32,10.65-13.83,14.7-2.23,.49-4.24,1.63-6.44,2.21-4.53,2.5-6.8,7.11-10.09,10.78-1.98,2.85-3.09,6.5-7,7.56-1.69,1.65-3.33,3.37-5.09,4.95-10.13,9.12-16.83,7.9-26.57-4.78-1.56-3.33-2.18-6.65,.11-9.95l-.21,.2c3.73-3.56,9.08-3.36,13.3-5.78,8.63-4.17,.74-9.41,.86-14.13-.15-3.61,1.25-7.01,1.49-10.57,3.1-6.93,8.4-11.57,15.2-14.65,3.56,.04,7.1-.04,10.14-2.31,8.04-1.39,16.09-1.29,24.14-.08Z"/><path class="cls-7" d="M380.25,184.56c13.85,2.98,20.18,14.27,27.09,24.78,2.37,3.6,3.85,7.78,5.74,11.7,1.15,1.67,1.76,3.52,1.85,5.53,.05,1.46,.04,2.92-.08,4.37,.08,4.26-4.07,7.74-2.28,12.32-6.8,14.13-11.71,17.59-26.19,8.38-3.3-1.46-5.03-3.96-5.07-7.59,.61-4.82-1.41-9.86,1.23-14.5,2.7-10.94,1.2-12.93-14.41-19.07-5.91,1.01-9.59-3.91-14.54-5.48-1.56-2.13-3.39-4.15-2.91-7.11-.25-9.54,6.66-11.65,13.91-13.41,1.85,.03,3.71,.07,5.56,.1,3.36,1.04,6.73,1.08,10.08-.02Z"/><path class="cls-7" d="M994.75,523.16c-4.24-1.64-7.49-5.09-13.32-2.71-4.49,1.83-5.12-7.56-10.82-6.87-.34-7.6-15.94-5.83-10.45-17.01,4.92-1.82,9.75-2.71,14.05,1.46,8.53,1.82,16.64,4.91,24.59,8.43,3.53-.7,5.32,1.06,6.06,4.3,1.52,2.14,3.14,4.23,4.55,6.45,1.68,2.63,2.64,5.68,.62,8.34-2.13,2.83-4.85,.09-7.31-.04-3.31,1.44-5.44-1.12-7.96-2.35Z"/><path class="cls-7" d="M947.81,378.28c-2.61,1.39-4.8,4.73-8.22,.78-2.92-3.38-2-6.18,.5-8.8,3.47-3.65,7.17-7.1,10.91-10.46,8.33-7.49,10.92-16.34,6.79-26.94-1.72-4.4-2.36-9.26,2.72-11.24,5.05-1.97,9.97-.55,12.09,5.49,.29,1.85-.53,2.65-2.36,2.47-5.72,1.87-7.48,5.18-4.16,10.68,1.21,2.01,1.93,4.32,2.81,6.52,4.47,11.08,2.44,16.26-8.44,20.72-2.52,1.03-5.16,1.63-6.85,3.99-1.3,2.8-2.03,6.09-5.8,6.8Z"/><path class="cls-7" d="M912.68,496.26c-1.79,.93-1.51,2.71-1.74,4.28-3.49,3.42-3.71,10.97-11.28,9.21-6.05-1.41-13.22-10.78-13.59-17.35-.4-8,6.87-10.89,10.71-16.06,4.38-3.33,8.42-3.01,12.1,1.13,1.34,1.69,2.68,3.38,4.02,5.07,1.61,4.61,2.02,9.19-.23,13.73Z"/><path class="cls-7" d="M308.88,145.47c-1.89-7.83,.89-13.29,8.34-16.37,4.66-1.39,9.31-1.8,13.93,.21,7.08,8.83,6.45,13.19-3.9,26.78-2.88,4.38-6.37,5.97-10.98,2.4-2.47-4.33-7.98-6.95-7.38-13.03Z"/><path class="cls-7" d="M679.74,167.91c3.67-3.29,7.33-6.58,11-9.88,.63-2.08,2.89-1.25,4.1-2.29,2.89,2.68,5.5,5.72,.29,8.29-8.57,4.24-10.49,12.19-12.31,20.34,.88,3.32,.95,6.64-.06,9.95,.63,2.22,1.25,4.43,1.88,6.65,.7,2.47,.26,4.08-2.18,5.77-3.82,2.64-4.04-1.72-6.06-2.43-3.56-1.59-3.48-4.96-3.98-8.06v.33c-2.08-7.05-2.63-13.96,1.72-20.46,.56-.72,1.13-1.44,1.69-2.16-1.07-3.54,2.08-4.37,3.9-6.05Z"/><path class="cls-7" d="M581.98,149.63c6.76-5.18,13.72-9.8,22.9-8.38,5.53,5.29,.42,8.55-2.34,12.27-1.51,2.15-3.12,4.24-4.52,6.47-6.73,10.7-11,10.62-17.6-.36-1.78-3.69-2.29-7.18,1.56-9.99Z"/><path class="cls-7" d="M328.93,417.06c7.02,3.59,14.32,6.31,21.98,8.34,4.73,1.25,10.05,3.54,4.83,10.14-4.06,1.44-8.08,1.4-12.05-.33-6.4-4.67-14.83-3.45-21.6-8.02-4.99-3.37-6.43-5.76-2.97-10.58,3.33-1.13,6.64-1.92,9.81,.44Z"/><path class="cls-7" d="M540.82,292.93c-.25-.96-.42-1.96-.77-2.89-1.89-5.15-1.83-11.41,3.14-12.97,3.35-1.05,5.49,5.54,6.38,9.57,1.15,5.19,3.54,9.22,8.07,11.97,4.47,2.49,3.89,6.11,2.22,9.97-.29,.16-.59,.31-.88,.47-4.52,2.4-9.54,7.26-14.14,4.24-4.65-3.05,1.59-8.36,.84-12.86-2.15-2.15-6.09-3.15-4.86-7.49Z"/><path class="cls-7" d="M1030.62,672.02c.29-.64,.59-1.28,.88-1.91,2.31-4.11,4.8-8,10.03-8.76,.89-.42,1.79-.8,2.66-1.26,3.42-1.79,7.32-5.8,10.59-3.48,4.07,2.89-1.22,7.07-1.13,10.85-1.13,4.05-2.13,8.17-6.27,10.4l.19-.1c-1.37,2.3-2.22,5.25-5.87,4.7-3.4,1.07-6.71,.26-10.04-.44-5.2-2.82-4.04-6.31-1.05-10Z"/><path class="cls-7" d="M866.02,488.49c3.94,3.65,8.24,6.97,10.52,12.06,1.95,2.78,1.94,5.5-.26,8.15v.05c-5.04,5-8.69,2.57-11.9-2.24-1.37-3.48-5.49-3.59-7.58-6.18-2.29-3.76-6.38-6.72-5.26-11.97-.44-2.71-1.12-5.45,.74-7.95,2.66-2.35,5.24-1.49,7.81,.19,1.97,2.64,4.76,4.66,5.93,7.9Z"/><path class="cls-7" d="M337.38,188.54c-3.89-5.95-6.13-12.07-1.99-18.87,.77-.42,1.53-.84,2.3-1.27,4.19-2.77,8.15-2.28,11.9,.88,1.43,.9,2.86,1.8,4.3,2.69,6.38,4.33,.26,9.85,1.41,14.68-.86,2.18-2.6,3.44-4.62,4.4-5.06,2.45-9.61,2.24-13.3-2.52Z"/><path class="cls-7" d="M926.73,468.03c-.68-8.86-7.36-14.98-10.41-22.77-.76-1.95-2.07-4.03,.07-5.4,1.73-1.1,3.65-.31,5.37,1.35,6.36,6.12,13.06,11.92,15.42,20.96,.93,3.15,.24,6.02-1.52,8.71-4.38,3.43-7.57,3.13-8.93-2.86Z"/><path class="cls-7" d="M1066.6,649.44c-3.52,4.39-7.04,9.12-10.38-.14-2.23-3.2-1.76-6.47-.24-9.77,.68-1.14,1.53-2.21,2-3.42,1.68-4.36,1.45-11.34,8.98-8.76,6.21,2.13,6.04,7.94,4.88,13.42-.2,.95-.86,1.81-1.3,2.71,.75,3.35-2.27,4.2-3.94,5.96Z"/><path class="cls-7" d="M498.76,251.36c-.36-.65-.71-1.3-1.07-1.96-4.11-2.33-1.01-6.45-2.35-9.48,2.61-5.23,5.81-5.23,9.47-1.05,2.62,.15,5.25,.6,7.84,.4,8.89-.69,10.71,2.79,6.36,10.22-1.17,3.5-4.17,4.4-7.3,5.1-4.38-.82-9.78,2.43-12.95-3.24Z"/><path class="cls-7" d="M363.69,125.8c7.28,10.71,5.81,14.67-5.83,15.73-6.35-3.83-6.35-10.18-6.51-16.46-1.04-1.12-.81-1.75,.72-1.9,4.28-.93,7.75,1.76,11.62,2.62Z"/><path class="cls-7" d="M733.47,131.8c-3.4-2.29-6.8-4.57-10.2-6.86-1.6-1.63-5.48-2.75-1.3-5.7,.5-.61,1-1.23,1.49-1.84,3.76-3.47,6.76-.53,9.91,1.17,5.33,1.24,8.02,6.14,12.29,8.84,1.24,1.34,1.28,2.81,.49,4.37-4.22,2.35-8.45,5.07-12.68,0Z"/><path class="cls-7" d="M904.9,521.37c-6.1-1.58-12.2-3.16-18.29-4.74-2.02-1.85-1.42-3.92-.49-6.01,2.4-1.65,5.42-.31,7.89-1.61,4.73,.67,9.76,.62,12.9,5.22,2.68,.89,5.37,1.78,8.05,2.68,2.33,3.27,.3,4.68-2.47,5.77l.57-.29c-3.2,3.5-5.54,.11-8.16-1.02Z"/><path class="cls-7" d="M985.66,649.31c-1.01,3.93-2.67,8.29-7.23,7.67-6.05-.83-7.42-6.48-8.61-11.64-.85-3.92,.04-5.9,4.43-3.94,.65,.15,1.29,.29,1.94,.44,11.3,.2,11.45,.33,9.48,7.48Z"/><path class="cls-7" d="M540.82,292.93c2.46,1.95,4.56,4.14,4.86,7.49-4.05-1.48-4.62,2.86-6.94,4.26-3.63,2.19-6.92,5.27-11.38,1.82-2.31-4.27-.61-7.35,2.94-9.87,3.17-2.19,6.75-3.22,10.52-3.7Z"/><path class="cls-7" d="M951.63,284.34c1.41,1.33,2.82,2.66,4.23,3.98,3.5,2.45,6.84,5,6.04,10.04-.61,1.9-1.27,3.79-1.8,5.72-.42,1.51,.27,3.71-1.97,4.12-2.75,.51-1.97-3.15-3.94-3.73-3.3-2.49-2.59-6.72-4.29-9.91-.39-3.57-5.14-7.88,1.73-10.22Z"/><path class="cls-7" d="M758.2,133.24c-.86,5.85-5.28,8.07-10.09,9.89,0,0-.02,.28-.02,.28-1.83-4.19-5.06-8.12-2.45-13.14,0-.95,0-1.91,0-2.86l2.14-.64c5.04-1.69,8.48-.31,9.82,5.11-.08,.57,.11,1.02,.58,1.35Z"/><path class="cls-7" d="M800.96,467.81c-.5-4.43,2.26-6.46,5.84-7.87,3.38,6.57,.87,8.78-5.84,7.87Z"/><path class="cls-7" d="M706.9,537.04c4.02,11.65-2.38,20.89-7.63,30.08-1.32,2.31-6.94,4.7-8.68,3.71-3.56-2.03-4.82-6.64-3.78-11.18,1.11-4.01,1.06-8.03,.03-12.04-.57-4.74,3.4-6.57,5.95-9.32,4.28-5.19,8.97-5.81,14.11-1.25Z"/></g></g><g><g><rect x="443.33" y="608.63" width="313.34" height="64.16" rx="32.08" ry="32.08"/><path d="M724.59,674.64h-249.18c-18.71,0-33.93-15.22-33.93-33.93s15.22-33.93,33.93-33.93h249.18c18.71,0,33.93,15.22,33.93,33.93s-15.22,33.93-33.93,33.93Zm-249.18-64.16c-16.67,0-30.23,13.56-30.23,30.23s13.56,30.23,30.23,30.23h249.18c16.67,0,30.23-13.56,30.23-30.23s-13.56-30.23-30.23-30.23h-249.18Z"/></g><g><path class="cls-5" d="M521.37,623.72l-4.93,21.27h12.46l-2.84,12.3h-25.44l7.77-33.57h12.98Z"/><path class="cls-5" d="M543.12,646.79l-.44,1.92h14.9l-2,8.69h-22.15l-3.57-5.29,3.85-16.54,5.69-4.93h17.14l4.21,5.09-2.56,11.06h-15.06Zm1.04-7.65l-.56,2.36h4.73l.52-2.36h-4.69Z"/><path class="cls-5" d="M577.01,641.34l-1.28,5.57h5.29l-2.4,10.49h-13.06l-3.65-5.69,2.4-10.37h-2.8l2.4-10.29h2.76l1.36-6.01h12.74l-1.4,6.01h5.33l-2.4,10.29h-5.29Z"/><path class="cls-5" d="M600.49,623.84l-1.52,6.65-6.05,6.53h-5.97l3.04-13.18h10.49Z"/><path class="cls-5" d="M594.4,657.41l1.68-7.29h11.42l.48-2.08h-8.73l-2.16-3.16,2.44-10.49,4.17-3.73h20.39l-1.48,6.41h-11.46l-.48,2.08h9.29l2.16,3.16-2.64,11.38-4.17,3.73h-20.91Z"/><path class="cls-5" d="M657.81,646.63l.52-2.2h-4.69l1.6-6.97h14.14l-4.57,19.87h-23.63l-4.13-6.13,5.17-22.31,6.65-5.01h23.31l-2.6,11.34h-16.14l-2.64,11.42h7.01Z"/><path class="cls-5" d="M669.15,651.76l3.81-16.46,6.05-4.69h16.34l4.05,5.81-3.81,16.46-6.05,4.73h-16.34l-4.05-5.85Zm16.46-3.77l1.76-7.77h-4.37l-1.76,7.77h4.37Z"/></g></g><g><rect class="cls-3" x="-15.15" y="560.61" width="96.97" height="66.67" transform="translate(-560.61 627.27) rotate(-90)"/><rect class="cls-5" x="-15.15" y="366.67" width="96.97" height="66.67" transform="translate(-366.67 433.33) rotate(-90)"/><rect class="cls-8" x="-15.15" y="172.73" width="96.97" height="66.67" transform="translate(-172.73 239.39) rotate(-90)"/><g><rect class="cls-3" x="1118.18" y="560.61" width="96.97" height="66.67" transform="translate(572.73 1760.61) rotate(-90)"/><rect class="cls-5" x="1118.18" y="366.67" width="96.97" height="66.67" transform="translate(766.67 1566.67) rotate(-90)"/><rect class="cls-8" x="1118.18" y="172.73" width="96.97" height="66.67" transform="translate(960.61 1372.73) rotate(-90)"/></g></g><g><rect class="cls-5" width="66.67" height="66.67"/><rect class="cls-3" x="163.64" width="96.97" height="66.67"/><rect class="cls-5" x="357.58" width="96.97" height="66.67"/><rect class="cls-8" x="551.52" width="96.97" height="66.67"/><rect class="cls-5" x="745.45" width="96.97" height="66.67"/><rect class="cls-3" x="939.39" width="96.97" height="66.67"/><rect class="cls-5" x="1133.33" width="66.67" height="66.67"/></g><g><rect class="cls-5" y="733.33" width="66.67" height="66.67"/><rect class="cls-8" x="163.64" y="733.33" width="96.97" height="66.67"/><rect class="cls-5" x="357.58" y="733.33" width="96.97" height="66.67"/><rect class="cls-3" x="551.52" y="733.33" width="96.97" height="66.67"/><rect class="cls-5" x="745.45" y="733.33" width="96.97" height="66.67"/><rect class="cls-8" x="939.39" y="733.33" width="96.97" height="66.67"/><rect class="cls-5" x="1133.33" y="733.33" width="66.67" height="66.67"/></g><g><g><path class="cls-4" d="M266.85,437.21l-5.39,23.87h-78.24l5.39-23.87h6.01l1.39-10.63h-4.47l7.7-33.11h77.62l-7.7,33.11h-4.16l-3.54,10.63h5.39Zm10.78-47.74h-78.39l4.93-21.41h78.39l-4.93,21.41Zm6.01-25.41h-77.93l10.01-43.43h20.48l-4.47,19.71h3.54l5.24-22.33h30.34l-5.24,22.33h3.39l4.62-19.71h20.02l-10.01,43.43Zm-59.76,48.21h19.25l1.08-4.47h-19.41l-.92,4.47Zm2.31,24.95h3.7l3.54-10.63h-5.85l-1.39,10.63Zm107.66-22.95h5.54l-10.93,47.44h-33.58l24.8-107.66h-3.85l-24.8,107.66h-25.87l32.65-141.23h57.6l-21.56,93.79Z"/><path class="cls-5" d="M329.14,462.56h-35.34l24.8-107.66h-2.08l-24.8,107.66h-27.64l33.05-142.95h59.37l-21.56,93.79h5.55l-11.33,49.16Zm-33.18-1.72h31.81l10.54-45.72h-5.54l21.56-93.79h-55.84l-32.25,139.51h24.11l24.8-107.66h5.62l-24.8,107.66Zm-33.81,1.11h-80l5.78-25.59h5.94l1.16-8.91h-4.57l8.1-34.83h79.39l-8.1,34.83h-4.22l-2.97,8.91h5.27l-5.78,25.59Zm-77.85-1.72h76.48l5-22.15h-5.51l4.12-12.35h4.09l7.3-31.39h-75.86l-7.3,31.39h4.36l-1.61,12.35h-6.07l-5,22.15Zm46.21-22.15h-5.3l1.61-12.35h7.8l-4.12,12.35Zm-3.34-1.72h2.1l2.97-8.91h-3.9l-1.16,8.91Zm16.64-23.23h-20.99l1.28-6.19h21.2l-1.49,6.19Zm-18.87-1.72h17.52l.66-2.75h-17.61l-.57,2.75Zm53.38-21.07h-80.16l5.33-23.13h80.16l-5.33,23.13Zm-78-1.72h76.63l4.53-19.69h-76.63l-4.53,19.69Zm84-23.69h-79.7l10.41-45.15h22.25l-4.47,19.71h1.78l5.24-22.33h32.11l-5.24,22.33h1.62l4.62-19.71h21.79l-10.41,45.15Zm-77.54-1.72h76.17l9.61-41.71h-18.26l-4.62,19.71h-5.16l5.24-22.33h-28.57l-5.24,22.33h-5.3l4.47-19.71h-18.72l-9.61,41.71Z"/></g><g><path class="cls-4" d="M400.08,439.06l-3.23,13.4-11.09,9.09h-48.82l5.24-22.49h16.79l7.85-33.73h-15.4l5.39-23.26h11.86l.92-3.85h-9.09l2.46-10.47h-4.47l8.78-38.35,18.33-10.78h25.26l14.32,11.4-8.63,37.73h-3.85l-2.46,10.47h-8.63l-.92,3.85h12.17l-5.39,23.26h-15.4l-7.7,33.73h15.71Zm-43.43-3.08h-12.32l6.31-27.57h12.32l-6.31,27.57Zm26.03-81.01h20.48l-5.39-4.77h-7.55l-7.55,4.77Zm5.54,81.01l6.31-27.57h12.48l-6.47,27.57h-12.32Zm123.98-115.67l-32.65,141.23h-81.47l32.65-141.23h81.47Zm-80.09,104.73h5.39l4.16-18.02h-5.39l-4.16,18.02Zm15.25-66.23l-4,17.71h5.39l4.16-17.71h-5.55Zm12.32,66.23l4.16-18.02h-5.39l-4.16,18.02h5.39Zm15.4-66.23h-5.39l-4.16,17.71h5.39l4.16-17.71Z"/><path class="cls-5" d="M480.24,462.4h-83.24l33.05-142.95h83.24l-33.05,142.95Zm-81.08-1.72h79.71l32.25-139.51h-79.71l-32.25,139.51Zm-13.1,1.72h-50.21l5.64-24.21h16.79l7.45-32.01h-15.4l5.79-24.98h11.87l.51-2.13h-9.08l2.46-10.47h-4.46l9.1-39.76,18.85-11.09h25.79l14.98,11.92-8.9,38.93h-3.85l-2.46,10.47h-8.63l-.51,2.13h12.16l-5.79,24.98h-15.4l-7.31,32.01h15.72l-3.56,14.74-11.55,9.46Zm-48.05-1.72h47.43l10.63-8.71,2.91-12.06h-15.7l8.09-35.45h15.4l4.99-21.54h-12.18l1.34-5.57h8.62l2.46-10.47h3.85l8.35-36.54-13.66-10.87h-24.72l-17.81,10.47-8.46,36.94h4.47l-2.46,10.47h9.09l-1.34,5.57h-11.85l-4.99,21.54h15.4l-8.26,35.45h-16.79l-4.84,20.77Zm63.21-23.84h-14.08l6.71-29.29h14.25l-6.87,29.29Zm-11.92-1.72h10.56l6.07-25.85h-10.7l-5.92,25.85Zm-31.97,1.72h-14.09l6.71-29.29h14.09l-6.71,29.29Zm-11.93-1.72h10.56l5.92-25.85h-10.56l-5.92,25.85Zm114.96-9.21h-7.16l4.56-19.74h7.16l-4.55,19.74Zm-4.99-1.72h3.62l3.76-16.3h-3.62l-3.76,16.3Zm-17.18,1.72h-7.16l4.55-19.74h7.16l-4.56,19.74Zm-4.99-1.72h3.62l3.76-16.3h-3.62l-3.76,16.3Zm38.41-46.79h-7.16l4.56-19.43h7.16l-4.56,19.43Zm-4.99-1.72h3.62l3.75-15.99h-3.62l-3.75,15.99Zm-17.19,1.72h-7.15l4.39-19.43h7.32l-4.56,19.43Zm-5-1.72h3.63l3.75-15.99h-3.77l-3.62,15.99Zm-39.01-19.84h-25.72l10.27-6.5h8.12l7.33,6.5Zm-19.78-1.72h15.25l-3.45-3.05h-6.97l-4.83,3.05Z"/></g><g><path class="cls-4" d="M704.85,405.33h139.08l-12.78,55.91h-139.08l12.78-55.91Zm152.94-44.51h-7.7l-2.31,10.16h-129.37l2.31-10.01h-9.7l8.63-37.27h44.36l1.54-6.47h53.6l-1.54,6.47h48.82l-8.63,37.12Zm-140.46,13.4h128.29l-6.47,27.72h-128.14l6.31-27.72Zm16.94,67h15.09l.92-4.16h-15.09l-.92,4.16Zm4.16-18.02l-.92,4.16h15.09l.92-4.16h-15.09Zm12.32-73.47l-.77,3.39h69.61l.77-3.39h-69.61Zm3.54,40.04h44.66l.77-3.7h-44.66l-.77,3.7Zm39.74,51.44l.92-4.16h-14.94l-.92,4.16h14.94Zm4.16-18.02h-14.94l-.92,4.16h14.94l.92-4.16Z"/><path class="cls-5" d="M831.83,462.1h-140.84l13.18-57.63h140.84l-13.18,57.63Zm-138.68-1.72h137.31l12.39-54.19h-137.31l-12.39,54.19Zm101.57-18.3h-16.7l1.31-5.88h16.7l-1.31,5.88Zm-14.56-1.72h13.18l.54-2.44h-13.18l-.54,2.44Zm-30.11,1.72h-16.86l1.31-5.88h16.86l-1.31,5.88Zm-14.71-1.72h13.33l.54-2.44h-13.33l-.54,2.44Zm62.61-12.14h-16.7l1.31-5.88h16.7l-1.31,5.88Zm-14.56-1.72h13.18l.54-2.44h-13.18l-.54,2.44Zm-30.11,1.72h-16.86l1.31-5.88h16.86l-1.31,5.88Zm-14.71-1.72h13.33l.54-2.44h-13.33l-.54,2.44Zm101.26-23.69h-129.9l6.71-29.44h130.06l-6.87,29.44Zm-127.75-1.72h126.38l6.07-26h-126.52l-5.92,26Zm87.56-10.45h-46.42l1.13-5.42h46.42l-1.13,5.42Zm-44.31-1.72h42.91l.41-1.97h-42.91l-.41,1.97Zm93.12-17.07h-131.14l2.31-10.01h-9.7l9.02-38.99h44.36l1.54-6.47h55.37l-1.54,6.47h48.82l-9.03,38.84h-7.7l-2.31,10.16Zm-128.98-1.72h127.61l2.31-10.16h7.7l8.23-35.4h-48.83l1.54-6.47h-51.83l-1.54,6.47h-44.35l-8.23,35.55h9.7l-2.31,10.01Zm100.79-16.15h-71.38l1.16-5.11h71.38l-1.16,5.11Zm-69.22-1.72h67.85l.38-1.67h-67.85l-.38,1.67Z"/></g><g><path class="cls-4" d="M872.12,444.91l-13.09,8.93h-13.55l4.77-20.95h24.64l-2.77,12.01Zm3.54-15.25h-24.64l3.85-16.79h24.64l-3.85,16.79Zm53.29-46.82l-18.17,78.7h-46.82l2-8.47,8.78-6.16,8.62-37.27h-28.18l6.16-26.8h67.61Zm83.63-30.65h-16.48l10.32,11.86-3.7,15.09h-136.92l3.39-14.79,16.79-12.17h-17.71l4.47-19.71,24.8-14.48h29.26l-6.62,29.11-5.7,4.47h18.79l-1.85,7.7h17.71l1.85-7.7h17.56l-7.55-4.62h-37.12l6.62-28.96h66.84l19.56,15.4-4.31,18.79Zm-67.61,92.72l-13.09,8.93h-14.94l4.77-20.95h26.03l-2.77,12.01Zm3.54-15.25h-26.03l3.85-16.79h26.03l-3.85,16.79Zm-15.71-46.82h72.39l-18.17,78.7h-50.21l2-8.47,8.78-6.16,8.63-37.27h-29.57l6.16-26.8Z"/><path class="cls-5" d="M987.7,462.4h-51.98l2.33-9.85,8.78-6.16,8.31-35.9h-29.57l6.56-28.52h74.15l-18.57,80.42Zm-49.81-1.72h48.44l17.78-76.98h-70.62l-5.76,25.08h29.57l-8.94,38.65-8.78,6.16-1.68,7.09Zm-26.43,1.72h-48.59l2.33-9.85,8.78-6.16,8.31-35.9h-28.18l6.56-28.52h69.38l-18.57,80.42Zm-46.42-1.72h45.05l17.78-76.98h-65.85l-5.76,25.08h28.19l-8.94,38.65-8.78,6.16-1.68,7.09Zm67.1-5.98h-16.28l5.17-22.67h27.8l-3.09,13.39-13.59,9.27Zm-14.13-1.72h13.59l12.59-8.59,2.45-10.63h-24.26l-4.38,19.22Zm-58.72,1.72h-14.9l5.17-22.67h26.41l-3.09,13.39-13.59,9.27Zm-12.74-1.72h12.21l12.59-8.59,2.45-10.63h-22.87l-4.38,19.22Zm102.64-22.46h-27.79l4.24-18.51h27.79l-4.24,18.51Zm-25.63-1.72h24.26l3.46-15.07h-24.26l-3.46,15.07Zm-47.21,1.72h-26.41l4.24-18.51h26.41l-4.24,18.51Zm-24.25-1.72h22.88l3.46-15.07h-22.88l-3.46,15.07Zm151.3-48.8h-138.67l3.7-16.15,14.9-10.8h-16.13l4.79-21.13,25.32-14.78h30.57l-6.93,30.46-3.98,3.12h17.39l-1.85,7.7h15.94l1.85-7.7h15.18l-4.74-2.9h-37.95l7.02-30.68h67.83l20.22,15.92-4.59,19.99h-15.28l9.37,10.77-3.96,16.18Zm-136.51-1.72h135.16l3.43-14-11.27-12.95h17.68l4.04-17.59-18.9-14.88h-65.86l-6.23,27.23h36.28l10.36,6.34h-19.93l-1.85,7.7h-19.48l1.85-7.7h-20.19l7.42-5.82,6.32-27.76h-27.95l-24.27,14.17-4.15,18.3h19.29l-18.67,13.54-3.08,13.42Z"/></g></g><g><rect class="cls-1" x="66.67" y="66.67" width="1066.67" height="666.67"/><rect class="cls-1" width="1200" height="800"/><rect class="cls-1" x="1133.33" width="66.67" height="66.67"/><rect class="cls-1" x="1133.33" y="733.33" width="66.67" height="66.67"/><rect class="cls-1" y="733.33" width="66.67" height="66.67"/><rect class="cls-1" width="66.67" height="66.67"/><g><line class="cls-1" x1="163.64" y1="66.67" x2="163.64"/><line class="cls-1" x1="66.67" y1="66.67" x2="66.67"/><line class="cls-1" x1="260.61" y1="66.67" x2="260.61"/><line class="cls-1" x1="357.58" y1="66.67" x2="357.58"/><line class="cls-1" x1="454.55" y1="66.67" x2="454.55"/><line class="cls-1" x1="648.48" y1="66.67" x2="648.48"/><line class="cls-1" x1="842.42" y1="66.67" x2="842.42"/><line class="cls-1" x1="551.52" y1="66.67" x2="551.52"/><line class="cls-1" x1="745.45" y1="66.67" x2="745.45"/><line class="cls-1" x1="939.39" y1="66.67" x2="939.39"/><line class="cls-1" x1="1036.36" y1="66.67" x2="1036.36"/><line class="cls-1" x1="1133.33" y1="66.67" x2="1133.33"/></g><g><line class="cls-1" x1="163.64" y1="800" x2="163.64" y2="733.33"/><line class="cls-1" x1="66.67" y1="800" x2="66.67" y2="733.33"/><line class="cls-1" x1="260.61" y1="800" x2="260.61" y2="733.33"/><line class="cls-1" x1="357.58" y1="800" x2="357.58" y2="733.33"/><line class="cls-1" x1="454.55" y1="800" x2="454.55" y2="733.33"/><line class="cls-1" x1="648.48" y1="800" x2="648.48" y2="733.33"/><line class="cls-1" x1="842.42" y1="800" x2="842.42" y2="733.33"/><line class="cls-1" x1="551.52" y1="800" x2="551.52" y2="733.33"/><line class="cls-1" x1="745.45" y1="800" x2="745.45" y2="733.33"/><line class="cls-1" x1="939.39" y1="800" x2="939.39" y2="733.33"/><line class="cls-1" x1="1036.36" y1="800" x2="1036.36" y2="733.33"/><line class="cls-1" x1="1133.33" y1="800" x2="1133.33" y2="733.33"/></g><g><line class="cls-1" x1="1200" y1="642.42" x2="1133.33" y2="642.42"/><line class="cls-1" x1="1200" y1="545.45" x2="1133.33" y2="545.45"/><line class="cls-1" x1="1200" y1="351.52" x2="1133.33" y2="351.52"/><line class="cls-1" x1="1200" y1="157.58" x2="1133.33" y2="157.58"/><line class="cls-1" x1="1200" y1="448.48" x2="1133.33" y2="448.48"/><line class="cls-1" x1="1200" y1="254.55" x2="1133.33" y2="254.55"/></g><g><line class="cls-1" x1="66.67" y1="642.42" x2="0" y2="642.42"/><line class="cls-1" x1="66.67" y1="545.45" x2="0" y2="545.45"/><line class="cls-1" x1="66.67" y1="351.52" x2="0" y2="351.52"/><line class="cls-1" x1="66.67" y1="157.58" y2="157.58"/><line class="cls-1" x1="66.67" y1="448.48" x2="0" y2="448.48"/><line class="cls-1" x1="66.67" y1="254.55" x2="0" y2="254.55"/></g></g><rect class="cls-5" x="53.14" y="66.67" width="13.52" height="666.67"/><rect class="cls-5" x="1133.33" y="66.67" width="13.52" height="666.67"/><rect class="cls-5" x="593.24" y="206.76" width="13.52" height="1066.67" transform="translate(-140.1 1340.1) rotate(-90)"/><rect class="cls-5" x="593.24" y="-473.43" width="13.52" height="1066.67" transform="translate(540.1 659.9) rotate(-90)"/><g><g><rect class="cls-1" x="66.67" y="66.67" width="1066.67" height="666.67"/><rect class="cls-1" width="1200" height="800"/><rect class="cls-1" x="1133.33" width="66.67" height="66.67"/><rect class="cls-1" x="1133.33" y="733.33" width="66.67" height="66.67"/><rect class="cls-1" y="733.33" width="66.67" height="66.67"/><rect class="cls-1" width="66.67" height="66.67"/><g><line class="cls-1" x1="163.64" y1="66.67" x2="163.64"/><line class="cls-1" x1="66.67" y1="66.67" x2="66.67"/><line class="cls-1" x1="260.61" y1="66.67" x2="260.61"/><line class="cls-1" x1="357.58" y1="66.67" x2="357.58"/><line class="cls-1" x1="454.55" y1="66.67" x2="454.55"/><line class="cls-1" x1="648.48" y1="66.67" x2="648.48"/><line class="cls-1" x1="842.42" y1="66.67" x2="842.42"/><line class="cls-1" x1="551.52" y1="66.67" x2="551.52"/><line class="cls-1" x1="745.45" y1="66.67" x2="745.45"/><line class="cls-1" x1="939.39" y1="66.67" x2="939.39"/><line class="cls-1" x1="1036.36" y1="66.67" x2="1036.36"/><line class="cls-1" x1="1133.33" y1="66.67" x2="1133.33"/></g><g><line class="cls-1" x1="163.64" y1="800" x2="163.64" y2="733.33"/><line class="cls-1" x1="66.67" y1="800" x2="66.67" y2="733.33"/><line class="cls-1" x1="260.61" y1="800" x2="260.61" y2="733.33"/><line class="cls-1" x1="357.58" y1="800" x2="357.58" y2="733.33"/><line class="cls-1" x1="454.55" y1="800" x2="454.55" y2="733.33"/><line class="cls-1" x1="648.48" y1="800" x2="648.48" y2="733.33"/><line class="cls-1" x1="842.42" y1="800" x2="842.42" y2="733.33"/><line class="cls-1" x1="551.52" y1="800" x2="551.52" y2="733.33"/><line class="cls-1" x1="745.45" y1="800" x2="745.45" y2="733.33"/><line class="cls-1" x1="939.39" y1="800" x2="939.39" y2="733.33"/><line class="cls-1" x1="1036.36" y1="800" x2="1036.36" y2="733.33"/><line class="cls-1" x1="1133.33" y1="800" x2="1133.33" y2="733.33"/></g><g><line class="cls-1" x1="1200" y1="642.42" x2="1133.33" y2="642.42"/><line class="cls-1" x1="1200" y1="545.45" x2="1133.33" y2="545.45"/><line class="cls-1" x1="1200" y1="351.52" x2="1133.33" y2="351.52"/><line class="cls-1" x1="1200" y1="157.58" x2="1133.33" y2="157.58"/><line class="cls-1" x1="1200" y1="448.48" x2="1133.33" y2="448.48"/><line class="cls-1" x1="1200" y1="254.55" x2="1133.33" y2="254.55"/></g><g><line class="cls-1" x1="66.67" y1="642.42" x2="0" y2="642.42"/><line class="cls-1" x1="66.67" y1="545.45" x2="0" y2="545.45"/><line class="cls-1" x1="66.67" y1="351.52" x2="0" y2="351.52"/><line class="cls-1" x1="66.67" y1="157.58" y2="157.58"/><line class="cls-1" x1="66.67" y1="448.48" x2="0" y2="448.48"/><line class="cls-1" x1="66.67" y1="254.55" x2="0" y2="254.55"/></g></g><line class="cls-1" x1="66.67" y1="53.14" x2="1133.33" y2="53.14"/><line class="cls-1" x1="66.67" y1="66.67" x2="1133.33" y2="66.67"/><line class="cls-1" x1="66.67" y1="733.33" x2="1133.33" y2="733.33"/><line class="cls-1" x1="66.67" y1="746.86" x2="1133.33" y2="746.86"/><line class="cls-1" x1="66.67" y1="66.67" x2="66.67" y2="733.33"/><line class="cls-1" x1="53.14" y1="66.67" x2="53.14" y2="733.33"/><line class="cls-1" x1="1146.86" y1="66.67" x2="1146.86" y2="733.33"/><line class="cls-1" x1="1133.33" y1="66.67" x2="1133.33" y2="733.33"/></g></svg>